<svg xmlns="http://www.w3.org/2000/svg" viewBox="0 0 24 24" fill="#1a73e8">
  <path d="M17.66 11.2c-.23-.3-.51-.56-.77-.82-.67-.6-1.43-1.03-2.07-1.66C13.33 7.26 13 4.85 13.95 3c-.95.23-1.78.75-2.49 1.32-2.59 2.08-3.61 5.75-2.39 8.9.04.1.08.2.08.33 0 .22-.15.42-.35.5-.22.1-.46.04-.64-.12-.18-.16-.28-.38-.32-.61-.09-.47-.07-.94.02-1.4-.4.36-.78.77-1.09 1.22-1.2 1.76-1.55 4.04-.6 6.04C7.08 21.2 9.4 22 12 22c3.15 0 5.65-2.41 6.35-5.46.36-1.57.06-3.26-.69-4.74zM12.44 19.46c-1.24 0-2.34-.82-2.68-2.02-.12-.41-.12-.86 0-1.28.16-.58.55-1.07 1.07-1.35.55-.29 1.23-.31 1.8-.07.57.23 1.05.69 1.3 1.26.15.34.22.7.22 1.07 0 1.33-1.05 2.39-2.38 2.39z"/>
</svg>
